<svg width="14" height="13" viewBox="0 0 14 13" fill="none" xmlns="http://www.w3.org/2000/svg">
<path d="M2 8.06829V12.0931H6V8.06829H8V12.0931H12V8.06829L7 3.55646L2 8.06829Z" fill="#C1C6CE"/>
<path d="M13.831 6.42312L12 4.7991V0.0186157H9.99998V3.02415L7.33198 0.657557C7.31198 0.640451 7.28898 0.634414 7.26798 0.620327C7.24294 0.601919 7.21614 0.586076 7.18798 0.573035C7.15708 0.562163 7.12529 0.554081 7.09298 0.548886C7.06198 0.542849 7.03198 0.536812 6.99998 0.536812C6.96898 0.536812 6.93898 0.542849 6.90798 0.548886C6.87551 0.553835 6.84366 0.562268 6.81298 0.574042C6.78498 0.58511 6.75998 0.603221 6.73298 0.620327C6.71198 0.634414 6.68798 0.640451 6.66898 0.657557L0.170976 6.42312C0.0162401 6.56188 -0.0375953 6.7822 0.0355474 6.97734C0.10869 7.17248 0.293707 7.30216 0.500976 7.30355C0.622907 7.3039 0.740711 7.25913 0.831976 7.17777L6.99998 1.70602L13.169 7.17777C13.3778 7.34292 13.6784 7.3154 13.8542 7.11503C14.0299 6.91467 14.0198 6.6111 13.831 6.42312Z" fill="#C1C6CE"/>
</svg>
