<svg width="103" height="84" viewBox="0 0 103 84" fill="none" xmlns="http://www.w3.org/2000/svg">
<path fill-rule="evenodd" clip-rule="evenodd" d="M2.89132 0C0.229601 0 0 2.81 0 2.81V24.0845C0 28.1275 3.9912 28 3.9912 28H16.3745C19.0349 28 18.5757 30.0554 18.5757 30.0554C18.5757 30.0554 15.1811 47.9708 14.8154 51.0017C14.4483 54.0354 12.2472 55.9646 12.2472 55.9646C12.2472 55.9646 9.31189 57.6185 8.11989 58.2615C6.92789 58.9046 6.92789 62 6.92789 62H50V60.2817C50 58.2615 40.4977 55.9646 36.9217 55.5969C33.3444 55.2307 34.0785 52.8401 34.0785 52.8401L35.5455 42.0922H39.6728L41.2319 31.2507H37.1046L37.5597 28H49.3958C57.3768 27.1724 63 21.6967 63 21.6967V5.1583C56.6715 0.656723 46.7354 0 46.7354 0H2.89132ZM82.5414 10H101.085C101.876 10 103 11.6707 103 13.5C103 15.3293 101.876 17 101.085 17H82.5414C81.6876 20.0493 79.6927 22 77.3692 22H67V5H77.3692C79.694 5 81.6876 6.95067 82.5414 10ZM9.60041 84C7 84 7 81.1757 7 81.1757V66.0185H50V81.268C50 83.7467 47.2144 84 47.2144 84H9.60041ZM49 7.5229V7.47711C49 6.6647 48.3806 6 47.6237 6H6.37633C5.61935 6 5 6.6647 5 7.47711V7.5229C5 8.3353 5.61935 9 6.37633 9H47.6237C48.3806 9 49 8.3353 49 7.5229Z" fill="white"/>
</svg>
